<svg xmlns="http://www.w3.org/2000/svg" xmlns:xlink="http://www.w3.org/1999/xlink" zoomAndPan="magnify" preserveAspectRatio="xMidYMid meet" version="1.0" viewBox="62.35 131.82 281.37 72.18"><defs><g/></defs><path fill="#fafaff" d="M 71.753906 132.167969 C 64.574219 133.523438 61.3125 142.625 62.644531 150.75 C 65.195312 166.289062 78.246094 191.34375 88.472656 203.429688 C 88.976562 203.992188 89.792969 204.152344 90.476562 203.828125 C 91.15625 203.5 91.542969 202.765625 91.421875 202.019531 C 89.335938 189.007812 88.574219 175.585938 93.648438 174.371094 C 103.488281 172.015625 105.171875 187.070312 105.425781 194.070312 C 105.441406 194.546875 105.761719 194.964844 106.222656 195.097656 C 106.679688 195.234375 107.175781 195.058594 107.449219 194.664062 C 123.09375 171.390625 130.953125 136.308594 119.660156 133.335938 C 109.75 130.726562 105.453125 143.453125 91.324219 138.75 C 93.765625 141.515625 99.976562 145.628906 112.589844 142.210938 C 112.589844 142.210938 102.238281 149.234375 92.398438 143.265625 C 84.953125 138.75 83.445312 129.960938 71.753906 132.167969 Z M 71.753906 132.167969 " fill-opacity="1" fill-rule="evenodd"/><g fill="#fafaff" fill-opacity="1"><g transform="translate(131.018833, 173.32369)"><g><path d="M 18.515625 -16.046875 L 25.09375 -30.015625 L 32.125 -30.640625 L 32.125 0 L 25.484375 0 L 25.484375 -11.0625 L 26.375 -21.28125 L 26.28125 -21.296875 L 22.984375 -11.671875 L 18.625 -2.46875 L 14.953125 -2.46875 L 10.96875 -10.765625 L 7.5625 -21.28125 L 7.453125 -21.265625 L 8.46875 -10 L 8.46875 0 L 2.015625 0 L 2.015625 -25.359375 L 1.40625 -30 L 8.609375 -30.59375 L 15.515625 -16.078125 L 17.03125 -10 Z M 18.515625 -16.046875 "/></g></g></g><g fill="#fafaff" fill-opacity="1"><g transform="translate(167.154816, 173.32369)"><g><path d="M 21.8125 -4.578125 L 21.265625 0 L 2.046875 0 L 2.390625 -4.640625 L 2.390625 -25.359375 L 1.6875 -30.125 L 21.0625 -30.125 L 21.0625 -25.546875 L 9.140625 -25.546875 L 9.4375 -22.765625 L 9.4375 -18.390625 L 19.734375 -18.390625 L 19.734375 -14.109375 L 9.4375 -14.109375 L 9.4375 -7.234375 L 9.28125 -4.578125 Z M 21.8125 -4.578125 "/></g></g></g><g fill="#fafaff" fill-opacity="1"><g transform="translate(191.245467, 173.32369)"><g><path d="M 26.5625 -30.65625 L 26.5625 0 L 20.21875 0 L 11.828125 -14.0625 L 8.859375 -20.84375 L 8.734375 -20.828125 L 9.5 -13.875 L 9.5 0 L 2.625 0 L 2.625 -25.359375 L 1.96875 -30 L 9.109375 -30.59375 L 17.65625 -16.265625 L 20.640625 -9.015625 L 20.765625 -9.03125 L 19.796875 -16.390625 L 19.796875 -29.984375 Z M 26.5625 -30.65625 "/></g></g></g><g fill="#fafaff" fill-opacity="1"><g transform="translate(221.358791, 173.32369)"><g><path d="M 24.71875 -4.4375 C 24.113281 -3.769531 23.429688 -3.144531 22.671875 -2.5625 C 21.921875 -1.976562 21.09375 -1.472656 20.1875 -1.046875 C 19.28125 -0.617188 18.296875 -0.28125 17.234375 -0.03125 C 16.179688 0.21875 15.039062 0.34375 13.8125 0.34375 C 11.738281 0.34375 9.878906 -0.0703125 8.234375 -0.90625 C 6.585938 -1.75 5.1875 -2.882812 4.03125 -4.3125 C 2.882812 -5.75 2.003906 -7.421875 1.390625 -9.328125 C 0.785156 -11.242188 0.484375 -13.28125 0.484375 -15.4375 C 0.484375 -17.457031 0.753906 -19.378906 1.296875 -21.203125 C 1.847656 -23.023438 2.6875 -24.617188 3.8125 -25.984375 C 4.945312 -27.359375 6.378906 -28.445312 8.109375 -29.25 C 9.847656 -30.050781 11.894531 -30.453125 14.25 -30.453125 C 15.976562 -30.453125 17.628906 -30.15625 19.203125 -29.5625 C 20.773438 -28.96875 22.148438 -28.109375 23.328125 -26.984375 L 20.359375 -23.484375 C 19.921875 -23.785156 19.457031 -24.066406 18.96875 -24.328125 C 18.488281 -24.597656 18 -24.832031 17.5 -25.03125 C 17 -25.238281 16.5 -25.398438 16 -25.515625 C 15.507812 -25.640625 15.03125 -25.703125 14.5625 -25.703125 C 13.289062 -25.703125 12.207031 -25.429688 11.3125 -24.890625 C 10.425781 -24.347656 9.703125 -23.609375 9.140625 -22.671875 C 8.578125 -21.742188 8.164062 -20.660156 7.90625 -19.421875 C 7.65625 -18.179688 7.53125 -16.875 7.53125 -15.5 C 7.53125 -14.6875 7.585938 -13.847656 7.703125 -12.984375 C 7.816406 -12.117188 7.988281 -11.273438 8.21875 -10.453125 C 8.457031 -9.628906 8.757812 -8.851562 9.125 -8.125 C 9.488281 -7.40625 9.921875 -6.769531 10.421875 -6.21875 C 10.929688 -5.675781 11.507812 -5.242188 12.15625 -4.921875 C 12.800781 -4.597656 13.519531 -4.4375 14.3125 -4.4375 C 14.644531 -4.4375 14.988281 -4.472656 15.34375 -4.546875 C 15.695312 -4.628906 16.035156 -4.734375 16.359375 -4.859375 C 16.691406 -4.992188 17.003906 -5.140625 17.296875 -5.296875 C 17.585938 -5.460938 17.835938 -5.628906 18.046875 -5.796875 L 18.046875 -12.375 L 12.140625 -12.75 L 12.140625 -16.859375 L 24.71875 -16.859375 Z M 24.71875 -4.4375 "/></g></g></g><g fill="#fafaff" fill-opacity="1"><g transform="translate(247.457004, 173.32369)"><g><path d="M 21.8125 -4.578125 L 21.265625 0 L 2.046875 0 L 2.390625 -4.640625 L 2.390625 -25.359375 L 1.6875 -30.125 L 21.0625 -30.125 L 21.0625 -25.546875 L 9.140625 -25.546875 L 9.4375 -22.765625 L 9.4375 -18.390625 L 19.734375 -18.390625 L 19.734375 -14.109375 L 9.4375 -14.109375 L 9.4375 -7.234375 L 9.28125 -4.578125 Z M 21.8125 -4.578125 "/></g></g></g><g fill="#fafaff" fill-opacity="1"><g transform="translate(271.547654, 173.32369)"><g><path d="M 9.296875 -4.578125 L 21.71875 -4.578125 L 21.1875 0 L 1.953125 0 L 2.40625 -4.65625 L 2.40625 -25.359375 L 1.734375 -30 L 9.453125 -30.625 L 9.453125 -7.234375 Z M 9.296875 -4.578125 "/></g></g></g><g fill="#fafaff" fill-opacity="1"><g transform="translate(293.630756, 173.32369)"><g><path d="M 21.8125 -4.578125 L 21.265625 0 L 2.046875 0 L 2.390625 -4.640625 L 2.390625 -25.359375 L 1.6875 -30.125 L 21.0625 -30.125 L 21.0625 -25.546875 L 9.140625 -25.546875 L 9.4375 -22.765625 L 9.4375 -18.390625 L 19.734375 -18.390625 L 19.734375 -14.109375 L 9.4375 -14.109375 L 9.4375 -7.234375 L 9.28125 -4.578125 Z M 21.8125 -4.578125 "/></g></g></g><g fill="#fafaff" fill-opacity="1"><g transform="translate(317.721407, 173.32369)"><g><path d="M 10.453125 -11.328125 C 10.304688 -11.515625 10.140625 -11.625 9.953125 -11.65625 C 9.765625 -11.6875 9.617188 -11.703125 9.515625 -11.703125 L 9.515625 0 L 2.453125 0 L 2.453125 -25.34375 L 1.6875 -29.75 C 2.289062 -29.820312 2.972656 -29.894531 3.734375 -29.96875 C 4.492188 -30.039062 5.269531 -30.101562 6.0625 -30.15625 C 6.851562 -30.207031 7.625 -30.25 8.375 -30.28125 C 9.132812 -30.320312 9.8125 -30.34375 10.40625 -30.34375 C 12.238281 -30.34375 13.90625 -30.15625 15.40625 -29.78125 C 16.914062 -29.414062 18.207031 -28.867188 19.28125 -28.140625 C 20.363281 -27.410156 21.203125 -26.503906 21.796875 -25.421875 C 22.390625 -24.347656 22.6875 -23.109375 22.6875 -21.703125 C 22.6875 -20.253906 22.460938 -19.007812 22.015625 -17.96875 C 21.566406 -16.9375 20.957031 -16.054688 20.1875 -15.328125 C 19.425781 -14.597656 18.546875 -14 17.546875 -13.53125 C 16.554688 -13.0625 15.519531 -12.679688 14.4375 -12.390625 L 17.25 -11.71875 L 26 0 L 18.609375 0 Z M 9.515625 -22.6875 L 9.515625 -16.109375 L 10.796875 -16.109375 C 11.691406 -16.109375 12.472656 -16.25 13.140625 -16.53125 C 13.804688 -16.820312 14.351562 -17.207031 14.78125 -17.6875 C 15.21875 -18.164062 15.539062 -18.726562 15.75 -19.375 C 15.96875 -20.019531 16.078125 -20.695312 16.078125 -21.40625 C 16.078125 -22.34375 15.921875 -23.117188 15.609375 -23.734375 C 15.296875 -24.347656 14.890625 -24.835938 14.390625 -25.203125 C 13.898438 -25.578125 13.34375 -25.835938 12.71875 -25.984375 C 12.09375 -26.128906 11.476562 -26.203125 10.875 -26.203125 L 9.8125 -26.203125 C 9.707031 -26.203125 9.601562 -26.195312 9.5 -26.1875 C 9.40625 -26.1875 9.296875 -26.175781 9.171875 -26.15625 Z M 9.515625 -22.6875 "/></g></g></g><g fill="#fafaff" fill-opacity="1"><g transform="translate(132.107655, 191.303767)"><g><path d="M 1.21875 -10.796875 C 1.375 -10.816406 1.550781 -10.832031 1.75 -10.84375 C 1.957031 -10.851562 2.171875 -10.859375 2.390625 -10.859375 C 2.609375 -10.867188 2.820312 -10.875 3.03125 -10.875 C 3.25 -10.882812 3.4375 -10.890625 3.59375 -10.890625 C 4.363281 -10.890625 5.070312 -10.796875 5.71875 -10.609375 C 6.375 -10.421875 6.9375 -10.117188 7.40625 -9.703125 C 7.882812 -9.296875 8.257812 -8.773438 8.53125 -8.140625 C 8.800781 -7.503906 8.9375 -6.734375 8.9375 -5.828125 C 8.9375 -5.128906 8.867188 -4.5 8.734375 -3.9375 C 8.597656 -3.382812 8.410156 -2.890625 8.171875 -2.453125 C 7.929688 -2.023438 7.644531 -1.65625 7.3125 -1.34375 C 6.976562 -1.03125 6.609375 -0.773438 6.203125 -0.578125 C 5.804688 -0.378906 5.378906 -0.234375 4.921875 -0.140625 C 4.472656 -0.046875 4.007812 0 3.53125 0 L 1.4375 0 L 1.4375 -9.296875 Z M 2.953125 -8.28125 L 2.953125 -1.15625 L 3.09375 -1.15625 C 3.789062 -1.15625 4.378906 -1.222656 4.859375 -1.359375 C 5.347656 -1.503906 5.753906 -1.695312 6.078125 -1.9375 C 6.398438 -2.175781 6.648438 -2.453125 6.828125 -2.765625 C 7.003906 -3.078125 7.132812 -3.394531 7.21875 -3.71875 C 7.3125 -4.050781 7.367188 -4.378906 7.390625 -4.703125 C 7.410156 -5.035156 7.421875 -5.34375 7.421875 -5.625 C 7.421875 -6.226562 7.367188 -6.785156 7.265625 -7.296875 C 7.160156 -7.804688 6.960938 -8.242188 6.671875 -8.609375 C 6.390625 -8.984375 5.992188 -9.269531 5.484375 -9.46875 C 4.984375 -9.675781 4.332031 -9.78125 3.53125 -9.78125 C 3.457031 -9.78125 3.375 -9.773438 3.28125 -9.765625 C 3.195312 -9.765625 3.117188 -9.757812 3.046875 -9.75 C 2.960938 -9.738281 2.867188 -9.726562 2.765625 -9.71875 Z M 2.953125 -8.28125 "/></g></g></g><g fill="#fafaff" fill-opacity="1"><g transform="translate(143.669277, 191.303767)"><g><path d="M 7.53125 -1.15625 L 7.390625 0 L 1.265625 0 L 1.375 -1.4375 L 1.375 -9.296875 L 1.15625 -10.796875 L 7.28125 -10.796875 L 7.28125 -9.65625 L 2.734375 -9.65625 L 2.875 -8.28125 L 2.875 -6.375 L 6.765625 -6.375 L 6.765625 -5.328125 L 2.875 -5.328125 L 2.875 -2.453125 L 2.8125 -1.15625 Z M 7.53125 -1.15625 "/></g></g></g><g fill="#fafaff" fill-opacity="1"><g transform="translate(154.511088, 191.303767)"><g><path d="M 7.921875 0 L 3.5 -7.40625 L 2.65625 -9.484375 L 2.609375 -9.484375 L 2.875 -7.203125 L 2.875 0 L 1.4375 0 L 1.4375 -9.296875 L 1.21875 -10.796875 L 2.921875 -10.953125 L 7.359375 -3.515625 L 8.21875 -1.25 L 8.265625 -1.25 L 7.921875 -3.671875 L 7.921875 -10.796875 L 9.328125 -10.953125 L 9.328125 0 Z M 7.921875 0 "/></g></g></g><g fill="#fafaff" fill-opacity="1"><g transform="translate(167.512321, 191.303767)"><g><path d="M 3.5625 0 L 3.5625 -9.65625 L 0.578125 -9.65625 L 0.578125 -10.796875 L 8.03125 -10.796875 L 8.03125 -9.65625 L 5.078125 -9.65625 L 5.078125 0 Z M 3.5625 0 "/></g></g></g><g fill="#fafaff" fill-opacity="1"><g transform="translate(178.354131, 191.303767)"><g><path d="M 0.453125 0 L 3.5 -9.359375 L 3.75 -10.796875 L 5.3125 -10.953125 L 8.890625 0 L 7.453125 0 L 6.390625 -3.234375 L 2.828125 -3.234375 L 1.765625 0 Z M 4.609375 -9.796875 L 4.34375 -7.921875 L 3.171875 -4.328125 L 6.03125 -4.328125 L 4.859375 -7.921875 Z M 4.609375 -9.796875 "/></g></g></g><g fill="#fafaff" fill-opacity="1"><g transform="translate(189.915752, 191.303767)"><g><path d="M 2.8125 -1.15625 L 7.484375 -1.15625 L 7.34375 0 L 1.21875 0 L 1.375 -1.4375 L 1.375 -9.296875 L 1.15625 -10.796875 L 2.875 -10.953125 L 2.875 -2.453125 Z M 2.8125 -1.15625 "/></g></g></g><g fill="#fafaff" fill-opacity="1"><g transform="translate(200.037752, 191.303767)"><g><path d="M 1.375 0 L 1.375 -9.296875 L 1.15625 -10.796875 L 2.875 -10.953125 L 2.875 -6.171875 L 6.78125 -10.796875 L 8.375 -10.796875 L 4.546875 -6.234375 L 3.328125 -5.78125 L 4.59375 -5.359375 L 8.578125 0 L 6.859375 0 L 2.875 -5.375 L 2.875 0 Z M 1.375 0 "/></g></g></g><g fill="#fafaff" fill-opacity="1"><g transform="translate(210.879565, 191.303767)"><g><path d="M 2.8125 -1.15625 L 7.484375 -1.15625 L 7.34375 0 L 1.21875 0 L 1.375 -1.4375 L 1.375 -9.296875 L 1.15625 -10.796875 L 2.875 -10.953125 L 2.875 -2.453125 Z M 2.8125 -1.15625 "/></g></g></g><g fill="#fafaff" fill-opacity="1"><g transform="translate(221.001566, 191.303767)"><g><path d="M 1.375 0 L 1.375 -9.296875 L 1.15625 -10.796875 L 2.875 -10.953125 L 2.875 0 Z M 1.375 0 "/></g></g></g><g fill="#fafaff" fill-opacity="1"><g transform="translate(227.524519, 191.303767)"><g><path d="M 7.921875 0 L 3.5 -7.40625 L 2.65625 -9.484375 L 2.609375 -9.484375 L 2.875 -7.203125 L 2.875 0 L 1.4375 0 L 1.4375 -9.296875 L 1.21875 -10.796875 L 2.921875 -10.953125 L 7.359375 -3.515625 L 8.21875 -1.25 L 8.265625 -1.25 L 7.921875 -3.671875 L 7.921875 -10.796875 L 9.328125 -10.953125 L 9.328125 0 Z M 7.921875 0 "/></g></g></g><g fill="#fafaff" fill-opacity="1"><g transform="translate(240.525755, 191.303767)"><g><path d="M 1.375 0 L 1.375 -9.296875 L 1.15625 -10.796875 L 2.875 -10.953125 L 2.875 0 Z M 1.375 0 "/></g></g></g><g fill="#fafaff" fill-opacity="1"><g transform="translate(247.048702, 191.303767)"><g><path d="M 1.375 0 L 1.375 -9.296875 L 1.15625 -10.796875 L 2.875 -10.953125 L 2.875 -6.171875 L 6.78125 -10.796875 L 8.375 -10.796875 L 4.546875 -6.234375 L 3.328125 -5.78125 L 4.59375 -5.359375 L 8.578125 0 L 6.859375 0 L 2.875 -5.375 L 2.875 0 Z M 1.375 0 "/></g></g></g></svg>